<svg width="243" height="896" viewBox="0 0 243 896" fill="none" xmlns="http://www.w3.org/2000/svg">
<mask id="mask0" mask-type="alpha" maskUnits="userSpaceOnUse" x="0" y="0" width="243" height="902">
<rect width="243" height="902" fill="#C4C4C4"/>
</mask>
<g mask="url(#mask0)">
<path opacity="0.8" d="M187.299 -55.5897C62.9932 5.20131 0.615057 190.432 58.9154 326.152C81.907 379.592 120.899 427.376 123.995 486.888C128.942 577.854 49.2646 646.804 22.1382 733.553C-9.69292 835.26 46.4076 959.056 137.781 989.472C179.02 1003.16 228.981 1002.65 255.483 1040.43C289.329 1088.57 260.612 1165.8 289.046 1218.14C314.8 1265.41 378.883 1269.83 421.48 1240.36C464.077 1210.89 488.957 1158.23 507.327 1106.15C525.698 1054.07 540.262 999.229 570.012 954.273C602.945 904.791 651.733 872.601 691.163 828.961C786.002 725.278 819.927 566.051 805.028 419.959C790.129 273.867 732.535 137.607 666.185 11.2212" fill="white"/>
</g>
</svg>
