<svg width="192" height="337" viewBox="0 0 192 337" fill="none" xmlns="http://www.w3.org/2000/svg">
<path d="M87.0415 52.7751L110.364 93.1712L87.0415 133.567L40.3961 133.567L17.0734 93.1712L40.3961 52.7751L87.0415 52.7751Z" fill="#FEE6E6"/>
<path d="M159.622 18.5792L178.201 50.7593L159.622 82.9394L122.464 82.9394L103.885 50.7593L122.464 18.5792L159.622 18.5792Z" fill="#FEE6E6"/>
<path d="M159.622 103.371L178.201 135.551L159.622 167.731L122.464 167.731L103.885 135.551L122.464 103.371L159.622 103.371Z" fill="#FEE6E6"/>
<path d="M37.2735 251.304V257H17.1775V210.92H36.6335V216.36H22.8735L23.4495 217.96V227.752L22.8735 229.352H35.8655V235.048H22.9375L23.4495 236.52V249.704L22.8735 251.304H37.2735ZM40.8125 250.664C45.0792 251.091 48.1938 251.304 50.1565 251.304C52.1192 251.304 53.4632 251.155 54.1885 250.856C54.9565 250.557 55.5325 250.216 55.9165 249.832C56.3005 249.405 56.5778 248.787 56.7485 247.976C56.9618 246.952 57.0685 245.693 57.0685 244.2C57.0685 242.707 56.7058 241.405 55.9805 240.296C55.2552 239.187 54.5725 238.355 53.9325 237.8C53.3352 237.245 52.2258 236.264 50.6045 234.856C48.9832 233.448 47.8312 232.445 47.1485 231.848C46.5085 231.208 45.5912 230.227 44.3965 228.904C42.2205 226.515 41.1325 224.019 41.1325 221.416C41.1325 216.893 41.6018 214.12 42.5405 213.096C43.9912 211.603 45.5485 210.749 47.2125 210.536C48.8765 210.28 50.6472 210.152 52.5245 210.152L61.2285 212.008C60.8872 214.44 60.3965 215.869 59.7565 216.296C59.4578 216.552 58.9245 216.68 58.1565 216.68C57.4312 216.68 56.4712 216.552 55.2765 216.296L52.8445 215.848C50.3272 215.848 48.7912 216.36 48.2365 217.384C47.8952 217.939 47.6818 218.451 47.5965 218.92C47.5538 219.389 47.5325 220.093 47.5325 221.032C47.5325 222.781 49.6872 225.469 53.9965 229.096C56.0445 230.717 57.6445 232.083 58.7965 233.192C59.9485 234.301 61.0365 235.645 62.0605 237.224C63.0845 238.803 63.5965 240.296 63.5965 241.704C63.5965 243.112 63.5752 244.2 63.5325 244.968C63.5325 245.693 63.4472 246.717 63.2765 248.04C63.1485 249.32 62.9352 250.323 62.6365 251.048C62.3378 251.773 61.8898 252.605 61.2925 253.544C60.6952 254.483 59.9698 255.187 59.1165 255.656C56.9405 256.851 54.3378 257.448 51.3085 257.448C49.6018 257.448 47.6178 257.256 45.3565 256.872C43.0952 256.445 41.5805 256.189 40.8125 256.104V250.664ZM75.0235 253.096C75.0235 255.059 74.8315 256.211 74.4475 256.552C74.0635 256.851 72.7195 257 70.4155 257H69.0075V210.856L79.3755 210.152C83.6422 210.152 86.5862 210.707 88.2075 211.816C88.8048 212.243 89.2955 212.627 89.6795 212.968C90.1062 213.309 90.4475 213.843 90.7035 214.568C91.0022 215.251 91.2155 215.827 91.3435 216.296C91.5142 216.723 91.6208 217.405 91.6635 218.344C91.7915 219.965 91.8555 221.608 91.8555 223.272C91.8555 224.893 91.8342 226.131 91.7915 226.984C91.7488 227.795 91.5995 228.797 91.3435 229.992C91.1302 231.187 90.7675 232.083 90.2555 232.68C89.7435 233.277 89.0395 233.875 88.1435 234.472C86.5648 235.581 83.6635 236.136 79.4395 236.136H75.0235V253.096ZM79.4395 230.44C81.5302 230.44 83.1515 230.099 84.3035 229.416C85.0288 228.989 85.4555 227.859 85.5835 226.024C85.6262 225.427 85.6475 224.488 85.6475 223.208C85.6475 221.885 85.6262 220.947 85.5835 220.392C85.5408 219.795 85.4128 219.133 85.1995 218.408C85.0288 217.64 84.7302 217.128 84.3035 216.872C83.1515 216.189 81.5302 215.848 79.4395 215.848H74.5115L75.0235 217.448V228.968L74.5115 230.44H79.4395ZM119.619 257C117.443 257 116.12 256.829 115.651 256.488C115.224 256.147 114.819 255.016 114.435 253.096L112.259 242.28H104.195L101.571 257H100.099C98.0505 257 96.7492 256.893 96.1945 256.68C95.6398 256.424 95.3625 255.869 95.3625 255.016C95.3625 254.12 98.6052 239.421 105.091 210.92H111.235L121.731 257H119.619ZM107.843 222.568L105.475 235.048L104.963 236.136H111.555C111.512 236.093 111.405 235.901 111.235 235.56C111.064 235.176 110.979 234.963 110.979 234.92L108.483 222.568H107.843ZM145.868 256.296L139.404 257.32V264.488C139.404 266.109 139.191 267.133 138.764 267.56C138.38 267.987 137.377 268.2 135.756 268.2H133.644C131.553 268.2 130.337 268.008 129.996 267.624C129.655 267.24 129.484 265.896 129.484 263.592H134.796V257.32C132.407 257.021 130.38 256.019 128.716 254.312C127.692 253.203 126.796 251.027 126.028 247.784C125.516 245.736 125.26 241 125.26 233.576V229.288C125.26 226.216 125.367 223.976 125.58 222.568C125.793 221.117 126.028 219.752 126.284 218.472C126.54 217.192 126.86 216.232 127.244 215.592C127.628 214.909 128.119 214.163 128.716 213.352C129.313 212.541 129.996 211.944 130.764 211.56C132.641 210.621 134.689 210.152 136.908 210.152L145.804 212.2C145.463 214.675 144.823 216.211 143.884 216.808C143.372 217.107 142.647 217.256 141.708 217.256C140.769 217.256 139.66 217.128 138.38 216.872L136.588 216.424C135.393 216.424 134.433 216.808 133.708 217.576C132.983 218.344 132.471 219.688 132.172 221.608C131.873 223.485 131.681 225.171 131.596 226.664C131.553 228.157 131.532 230.461 131.532 233.576C131.532 236.691 131.553 238.995 131.596 240.488C131.681 241.981 131.873 243.688 132.172 245.608C132.471 247.485 132.983 248.808 133.708 249.576C134.433 250.344 135.415 250.728 136.652 250.728C137.889 250.728 139.575 250.643 141.708 250.472C143.841 250.259 145.228 250.131 145.868 250.088V256.296ZM163.091 257.448C158.27 257.448 154.984 255.613 153.235 251.944C151.528 248.275 150.675 242.216 150.675 233.768C150.675 225.32 151.592 219.283 153.427 215.656C155.262 211.987 158.483 210.152 163.091 210.152C167.742 210.152 170.963 211.965 172.755 215.592C174.547 219.219 175.443 225.277 175.443 233.768C175.443 242.259 174.59 248.339 172.883 252.008C171.219 255.635 167.955 257.448 163.091 257.448ZM156.755 233.576C156.755 239.677 157.224 244.243 158.163 247.272C159.102 250.259 160.744 251.752 163.091 251.752C165.48 251.752 167.144 250.259 168.083 247.272C169.022 244.243 169.491 239.699 169.491 233.64C169.491 221.779 167.358 215.848 163.091 215.848C158.867 215.848 156.755 221.757 156.755 233.576Z" fill="#FEE6E6"/>
<path d="M77.1188 277.98V322H66.9508V303.958H49.4048V322H39.2368V277.98H49.4048V295.03H66.9508V277.98H77.1188ZM115.563 313.072V322H84.6252V277.98H115.005V286.908H94.7932V295.464H112.153V303.71H94.7932V313.072H115.563ZM127.258 277.98L136.806 293.17L146.354 277.98H157.39L142.82 300.3L156.894 322H145.858L136.806 307.43L127.754 322H116.656L130.73 300.3L116.16 277.98H127.258Z" fill="#FEE6E6"/>
</svg>
