<svg width="414" height="186" viewBox="0 0 414 186" fill="none" xmlns="http://www.w3.org/2000/svg">
<mask id="mask0" mask-type="alpha" maskUnits="userSpaceOnUse" x="0" y="0" width="414" height="186">
<rect width="414" height="186" fill="#C4C4C4"/>
</mask>
<g mask="url(#mask0)">
<path d="M-438.255 -361.084C-465.908 -253.074 -389.853 -127.41 -281.424 -102.213C-238.711 -92.315 -191.179 -95.3182 -155.019 -69.8223C-99.6395 -30.9887 -99.9367 52.0927 -63.2597 109.603C-20.2722 177.047 80.1105 198.15 144.09 153.443C172.945 133.248 197.962 100.884 233.354 101.294C278.484 101.764 308.821 155.898 353.655 161.791C394.18 167.063 429.219 127.896 433.675 86.8933C438.13 45.8904 420.131 5.57162 399.166 -30.2978C378.201 -66.1672 353.707 -100.86 342.652 -140.754C330.579 -184.785 336.59 -231.025 331.204 -276.536C318.996 -385.409 243.636 -480.767 151.172 -538.662C58.7066 -596.557 -49.6775 -622.457 -156.76 -638.166" fill="#FEE6E6"/>
</g>
</svg>
