<svg width="51" height="46" viewBox="0 0 51 46" fill="none" xmlns="http://www.w3.org/2000/svg">
<path d="M25.5 45.3735C24.7739 45.3735 24.0739 45.1105 23.5284 44.6327C21.4681 42.8312 19.4818 41.1382 17.7293 39.6448L17.7203 39.6371C12.5823 35.2585 8.14538 31.4773 5.05828 27.7524C1.60737 23.5883 0 19.6401 0 15.327C0 11.1364 1.43694 7.2703 4.04584 4.44039C6.68588 1.57702 10.3084 0 14.2472 0C17.1911 0 19.8872 0.930723 22.2603 2.7661C23.458 3.69254 24.5435 4.82638 25.5 6.14892C26.4567 4.82638 27.5419 3.69254 28.74 2.7661C31.1131 0.930723 33.8091 0 36.7531 0C40.6915 0 44.3144 1.57702 46.9544 4.44039C49.5634 7.2703 50.9999 11.1364 50.9999 15.327C50.9999 19.6401 49.3929 23.5883 45.942 27.7521C42.8549 31.4773 38.4184 35.2581 33.2811 39.6363C31.5255 41.132 29.5361 42.8277 27.4711 44.6335C26.926 45.1105 26.2256 45.3735 25.5 45.3735ZM14.2472 2.9875C11.1527 2.9875 8.30997 4.2225 6.24192 6.46526C4.14312 8.74187 2.98711 11.8889 2.98711 15.327C2.98711 18.9545 4.33533 22.1988 7.35824 25.8462C10.28 29.3719 14.6258 33.0753 19.6576 37.3636L19.667 37.3713C21.4261 38.8705 23.4202 40.5701 25.4957 42.3849C27.5836 40.5666 29.5808 38.8643 31.3434 37.3628C36.3749 33.0745 40.7203 29.3719 43.6421 25.8462C46.6646 22.1988 48.0128 18.9545 48.0128 15.327C48.0128 11.8889 46.8568 8.74187 44.758 6.46526C42.6903 4.2225 39.8472 2.9875 36.7531 2.9875C34.4862 2.9875 32.4049 3.70811 30.5672 5.12909C28.9295 6.396 27.7886 7.99753 27.1198 9.11813C26.7758 9.69439 26.1704 10.0383 25.5 10.0383C24.8295 10.0383 24.2241 9.69439 23.8801 9.11813C23.2117 7.99753 22.0708 6.396 20.4327 5.12909C18.595 3.70811 16.5137 2.9875 14.2472 2.9875Z" fill="white"/>
</svg>
